<svg xmlns="http://www.w3.org/2000/svg" xmlns:xlink="http://www.w3.org/1999/xlink" width="378" zoomAndPan="magnify" viewBox="0 0 283.5 283.500005" height="378" preserveAspectRatio="xMidYMid meet" version="1.0"><defs><g/><clipPath id="99a993d317"><path d="M 23 23 L 261 23 L 261 261 L 23 261 Z M 23 23 " clip-rule="nonzero"/></clipPath><clipPath id="1b15e4ade4"><path d="M 51.644531 0.492188 L 283.007812 51.648438 L 231.851562 283.007812 L 0.492188 231.855469 Z M 51.644531 0.492188 " clip-rule="nonzero"/></clipPath><clipPath id="698cd1f666"><path d="M 167.324219 26.070312 C 103.4375 11.945312 40.195312 52.285156 26.070312 116.171875 C 11.941406 180.0625 52.285156 243.304688 116.171875 257.429688 C 180.0625 271.558594 243.304688 231.214844 257.429688 167.328125 C 271.554688 103.4375 231.214844 40.195312 167.324219 26.070312 Z M 167.324219 26.070312 " clip-rule="nonzero"/></clipPath><clipPath id="b29954d606"><path d="M 31 28 L 253 28 L 253 255 L 31 255 Z M 31 28 " clip-rule="nonzero"/></clipPath><clipPath id="037aaa7647"><path d="M 256.894531 250.792969 L 35.039062 258.769531 L 26.902344 32.414062 L 248.757812 24.441406 Z M 256.894531 250.792969 " clip-rule="nonzero"/></clipPath><clipPath id="daa37f8906"><path d="M 256.894531 250.792969 L 35.039062 258.769531 L 26.902344 32.414062 L 248.757812 24.441406 Z M 256.894531 250.792969 " clip-rule="nonzero"/></clipPath><clipPath id="289dc162de"><path d="M 37 37 L 247 37 L 247 247 L 37 247 Z M 37 37 " clip-rule="nonzero"/></clipPath><clipPath id="750de5f0c3"><path d="M 25.398438 233.308594 L 50.183594 25.390625 L 258.101562 50.175781 L 233.316406 258.09375 Z M 25.398438 233.308594 " clip-rule="nonzero"/></clipPath><clipPath id="e93e823893"><path d="M 37.792969 129.347656 C 30.949219 186.761719 71.945312 238.855469 129.359375 245.699219 C 186.773438 252.542969 238.863281 211.546875 245.707031 154.132812 C 252.550781 96.71875 211.558594 44.628906 154.144531 37.785156 C 96.730469 30.941406 44.636719 71.933594 37.792969 129.347656 Z M 37.792969 129.347656 " clip-rule="nonzero"/></clipPath><clipPath id="440cc5641b"><path d="M 90 63 L 193.390625 63 L 193.390625 150.730469 L 90 150.730469 Z M 90 63 " clip-rule="nonzero"/></clipPath></defs><g clip-path="url(#99a993d317)"><g clip-path="url(#1b15e4ade4)"><g clip-path="url(#698cd1f666)"><path fill="#fdf9f7" d="M 51.644531 0.492188 L 283.007812 51.648438 L 231.851562 283.007812 L 0.492188 231.855469 Z M 51.644531 0.492188 " fill-opacity="1" fill-rule="nonzero"/></g></g></g><g clip-path="url(#b29954d606)"><g clip-path="url(#037aaa7647)"><g clip-path="url(#daa37f8906)"><path fill="#0b0019" d="M 252.371094 133.011719 C 253.335938 152 249.289062 169.984375 241.355469 187.125 C 237.097656 196.320312 231.617188 204.757812 225.132812 212.578125 C 215.109375 224.660156 203.207031 234.367188 189.371094 241.6875 C 179.359375 246.984375 168.773438 250.761719 157.628906 252.6875 C 151.425781 253.757812 145.140625 254.808594 138.804688 254.472656 C 134.53125 254.246094 130.246094 254.167969 125.964844 253.785156 C 114.011719 252.722656 102.808594 249.292969 92.019531 244.273438 C 84.007812 240.546875 76.71875 235.671875 69.878906 230.082031 C 65.359375 226.390625 61.328125 222.238281 57.53125 217.832031 C 56.476562 216.613281 56.347656 215.136719 57.316406 214.367188 C 58.542969 213.394531 59.710938 213.6875 60.734375 214.785156 C 62.816406 217.011719 64.84375 219.28125 67.035156 221.410156 C 79.300781 233.382812 93.671875 241.664062 110.148438 246.269531 C 116.585938 248.066406 123.117188 249.234375 129.816406 249.664062 C 133.3125 249.886719 136.820312 250.132812 140.304688 250.128906 C 144.027344 250.128906 147.765625 249.601562 151.476562 249.113281 C 158.675781 248.160156 165.738281 246.527344 172.589844 244.09375 C 184.21875 239.957031 194.921875 234.140625 204.605469 226.410156 C 210.214844 221.929688 215.480469 217.105469 220.152344 211.667969 C 228.746094 201.671875 235.480469 190.519531 240.292969 178.222656 C 243.167969 170.871094 245.238281 163.308594 246.546875 155.523438 C 247.078125 152.378906 247.335938 149.210938 247.707031 146.054688 C 248.640625 138.085938 248.429688 130.097656 247.246094 122.25 C 245.589844 111.289062 242.535156 100.648438 237.648438 90.605469 C 233.824219 82.746094 229.183594 75.429688 223.550781 68.769531 C 216.917969 60.929688 209.292969 54.238281 200.589844 48.742188 C 189.296875 41.609375 177.117188 36.886719 163.976562 34.566406 C 155.257812 33.027344 146.46875 32.398438 137.679688 33.246094 C 121.699219 34.789062 106.613281 39.414062 92.6875 47.527344 C 83.632812 52.804688 75.476562 59.214844 68.136719 66.753906 C 57.804688 77.371094 49.964844 89.5625 44.289062 103.195312 C 40.164062 113.113281 37.570312 123.46875 36.472656 134.152344 C 35.957031 139.203125 35.679688 144.308594 35.898438 149.398438 C 36.417969 161.480469 38.515625 173.257812 42.933594 184.566406 C 43.210938 185.277344 43.539062 185.980469 43.710938 186.71875 C 43.941406 187.683594 43.855469 188.773438 42.769531 189.039062 C 41.765625 189.285156 40.480469 189.949219 39.722656 188.390625 C 38.53125 185.953125 37.625 183.398438 36.824219 180.828125 C 34.820312 174.402344 33.148438 167.886719 32.402344 161.167969 C 31.621094 154.125 31.058594 147.027344 31.480469 139.96875 C 32.726562 119.078125 38.90625 99.707031 50.214844 82.054688 C 54.882812 74.765625 60.273438 68.019531 66.441406 61.96875 C 77.738281 50.890625 90.65625 42.230469 105.417969 36.394531 C 112.46875 33.609375 119.714844 31.550781 127.140625 30.132812 C 134.9375 28.644531 142.882812 28.238281 150.761719 28.535156 C 164.746094 29.0625 178.1875 32.351562 190.917969 38.277344 C 199.292969 42.175781 207.035156 47.101562 214.113281 53.078125 C 231.40625 67.683594 242.800781 86.050781 248.777344 107.832031 C 249.90625 111.949219 250.65625 116.179688 251.429688 120.382812 C 252.1875 124.546875 252.183594 128.789062 252.371094 133.011719 Z M 252.371094 133.011719 " fill-opacity="1" fill-rule="nonzero"/></g></g></g><g clip-path="url(#289dc162de)"><g clip-path="url(#750de5f0c3)"><g clip-path="url(#e93e823893)"><path fill="#ffcc00" d="M 25.398438 233.308594 L 50.183594 25.390625 L 258.101562 50.175781 L 233.316406 258.09375 Z M 25.398438 233.308594 " fill-opacity="1" fill-rule="nonzero"/></g></g></g><g clip-path="url(#440cc5641b)"><path fill="#000000" d="M 193.34375 135.679688 C 187.46875 131.964844 186.9375 124.042969 187.496094 119.671875 C 187.957031 115.996094 188.65625 110.515625 186.351562 106.339844 C 185.527344 104.851562 184.496094 103.296875 183.363281 101.769531 C 182.078125 100.003906 180.667969 98.292969 179.300781 96.777344 C 178.6875 96.089844 177.945312 95.332031 177.121094 94.492188 C 175.417969 92.769531 173.324219 90.652344 170.855469 87.566406 L 170.335938 86.921875 C 170.015625 86.515625 169.683594 86.082031 169.347656 85.632812 C 169.191406 85.785156 169.054688 85.957031 168.941406 86.152344 C 168.648438 86.65625 168.46875 87.273438 168.371094 87.945312 C 169.261719 90.078125 169.765625 92.417969 169.765625 94.871094 C 169.765625 95.222656 169.75 95.558594 169.722656 95.894531 C 170.546875 97.71875 171.511719 99.203125 172.042969 100.03125 C 172.179688 100.238281 172.292969 100.410156 172.347656 100.519531 C 173.507812 102.398438 174.625 104.265625 175.421875 105.875 C 177.472656 110.097656 176.675781 111.820312 171.886719 112.519531 C 168.832031 112.96875 165.632812 112.828125 162.535156 112.996094 C 161.390625 113.066406 160.382812 113.109375 159.757812 112.996094 C 157.339844 113.027344 154.578125 112.996094 151.839844 112.730469 C 149.871094 112.71875 147.988281 112.378906 146.226562 111.777344 C 139.820312 110.066406 135.632812 104.542969 134.472656 98.039062 C 133.523438 96.835938 132.65625 96.1875 131.960938 95.839844 L 131.945312 95.851562 L 130.925781 95.503906 C 130.871094 95.488281 130.828125 95.472656 130.773438 95.472656 C 130.089844 101.769531 132.714844 108.121094 136.425781 113.054688 C 139.625 117.289062 143.894531 117.664062 149.171875 118.128906 C 152.148438 118.378906 158.277344 119.585938 164.796875 123.089844 L 163.816406 123.089844 C 163.804688 123.089844 163.035156 122.9375 162.535156 122.824219 C 162.269531 122.753906 162.03125 122.699219 161.960938 122.671875 C 157.160156 120.804688 152.816406 120.425781 149.003906 120.089844 C 143.238281 119.585938 138.589844 119.195312 134.863281 114.246094 C 133.382812 112.28125 132.042969 110.066406 131.023438 107.980469 C 130.507812 106.914062 130.0625 105.863281 129.738281 104.882812 C 129.433594 105.875 129.179688 106.71875 129.195312 106.859375 C 128.832031 108.050781 133.019531 114.933594 133.480469 115.394531 C 137.347656 122.179688 137.445312 121.253906 145.988281 123.230469 C 150.179688 124.199219 153.976562 126.511719 154.269531 127.816406 L 153.375 127.394531 C 151.460938 126.511719 148.515625 125.839844 145.542969 125.152344 C 136.59375 123.078125 135.910156 123.652344 131.777344 116.363281 C 130.996094 115.003906 130.117188 113.445312 129.335938 111.976562 C 129.347656 112.523438 129.433594 113.097656 129.570312 113.714844 C 130.03125 115.675781 131.191406 118.269531 133.59375 122.613281 C 135.8125 126.625 136.929688 127.074219 145.5 130.492188 L 147.332031 131.222656 C 148.292969 131.613281 150.332031 132.21875 152.664062 132.917969 C 157.523438 134.390625 172.976562 137.65625 172.292969 150.738281 L 171.957031 149.8125 C 171.230469 147.820312 170.367188 145.957031 168.984375 144.132812 C 167.601562 142.296875 165.660156 140.476562 162.785156 138.582031 C 161.25 137.558594 156.238281 136.058594 152.105469 134.8125 C 149.757812 134.109375 147.691406 133.492188 146.605469 133.058594 L 144.773438 132.332031 C 135.632812 128.671875 134.429688 128.195312 131.875 123.582031 C 129.515625 119.292969 128.289062 116.601562 127.742188 114.5 L 126.320312 114.5 C 122.621094 118.269531 120.722656 122.320312 119.730469 126.667969 C 118.722656 131.136719 118.667969 135.976562 118.667969 141.148438 L 118.667969 142.144531 C 115.542969 138.917969 117.621094 128.546875 117.816406 126.230469 C 118.753906 122.070312 120.484375 118.171875 123.636719 114.5 L 121.082031 114.5 C 121.015625 114.695312 120.929688 114.90625 120.832031 115.101562 C 120.132812 116.644531 119.046875 118.339844 117.441406 120.0625 L 116.921875 120.625 L 116.253906 120.257812 C 112.21875 118.042969 112.707031 115.351562 113.113281 113.179688 C 113.222656 112.523438 113.335938 111.917969 113.222656 111.609375 C 111.546875 106.773438 105.585938 109.746094 102.90625 106.898438 C 107.429688 107.109375 113.417969 106.171875 115.082031 110.953125 C 115.359375 111.765625 115.207031 112.605469 115.039062 113.53125 C 114.789062 114.945312 114.464844 116.671875 116.546875 118.117188 C 117.707031 116.769531 118.5 115.480469 119.046875 114.273438 C 119.839844 112.550781 120.078125 111.035156 120.078125 109.886719 C 120.066406 109.074219 119.324219 106.703125 118.402344 104.617188 C 117.734375 103.085938 117.019531 101.785156 116.589844 101.585938 C 110.277344 98.601562 109.257812 98.601562 102.488281 97.578125 L 113.851562 94.898438 L 113.894531 94.898438 C 114.550781 94.898438 115.304688 95.617188 116.394531 96.636719 C 119.015625 99.089844 124.058594 103.816406 128.621094 101.953125 C 128.777344 101.476562 128.902344 101.082031 128.972656 100.859375 C 128.929688 100.492188 128.902344 100.144531 128.875 99.777344 C 127.5625 98.65625 126.152344 97.214844 124.671875 95.683594 C 121.320312 92.234375 117.578125 88.382812 114.101562 87.566406 C 110.570312 87.566406 106.074219 89 102.667969 90.246094 C 102.738281 89.839844 105.238281 87.050781 106.535156 86.894531 C 106.339844 85.941406 105.824219 84.917969 105.335938 83.964844 C 104.734375 82.746094 104.175781 81.636719 104.175781 80.601562 C 104.175781 78.847656 105.433594 77.710938 109.609375 77.710938 C 111.742188 77.710938 114.089844 78.945312 116.101562 79.996094 C 116.460938 80.195312 116.824219 80.375 117.246094 80.585938 C 118.25 81.089844 119.449219 81.078125 120.59375 80.742188 C 121.65625 80.433594 122.660156 79.84375 123.472656 79.113281 C 122.785156 78.46875 121.515625 77.25 121.070312 76.800781 C 119.351562 75.0625 114.328125 71.683594 111.800781 71.292969 C 109.566406 70.96875 106.285156 71.054688 100.8125 71.683594 L 100.058594 71.769531 L 99.277344 71.867188 C 98.144531 72.007812 97.226562 76.5625 96.289062 81.21875 C 95.324219 85.984375 93.414062 89.980469 92.671875 93.945312 C 91.933594 97.957031 92.085938 102.972656 95.101562 109.253906 C 95.296875 109.660156 95.492188 110.066406 95.6875 110.476562 C 100.113281 117.75 102.824219 139.71875 93.066406 146.824219 L 93.441406 145.914062 C 101.59375 126.917969 97.113281 117.804688 93.929688 111.34375 C 93.722656 110.921875 93.523438 110.503906 93.328125 110.125 C 90.089844 103.382812 89.910156 98.027344 90.691406 93.734375 C 91.488281 89.347656 93.414062 85.589844 94.363281 80.839844 C 95.453125 75.46875 96.5 70.226562 99.039062 69.902344 C 99.195312 69.734375 106.230469 65.011719 107.066406 64.367188 C 110.851562 61.480469 118.292969 65.054688 121.753906 66.707031 C 122.394531 67.015625 122.898438 67.253906 123.136719 67.339844 L 124.085938 67.675781 L 123.738281 68.613281 C 123.679688 68.796875 123.609375 68.964844 123.542969 69.132812 L 124.460938 69.132812 L 124.460938 72.609375 L 139.023438 72.609375 L 145.640625 64.367188 L 157.214844 64.367188 L 163.832031 72.609375 L 168.019531 72.609375 L 168.019531 70.101562 L 177.738281 70.101562 L 177.738281 72.609375 L 179.664062 72.609375 L 179.664062 72.722656 C 180.445312 72.917969 181.128906 73.324219 181.6875 73.871094 C 182.457031 74.65625 182.929688 75.722656 182.929688 76.898438 L 182.929688 97.996094 C 183.628906 98.839844 184.300781 99.707031 184.941406 100.589844 C 186.113281 102.1875 187.203125 103.816406 188.070312 105.386719 C 190.679688 110.125 189.9375 115.984375 189.4375 119.921875 C 188.683594 125.851562 189.101562 130.984375 193.34375 135.679688 Z M 170.03125 72.609375 L 176.0625 72.609375 L 176.0625 71.683594 L 170.03125 71.683594 Z M 114.355469 85.589844 L 136.777344 85.589844 C 137.515625 84.371094 138.410156 83.25 139.398438 82.253906 C 142.625 79.015625 147.066406 77.023438 151.980469 77.023438 C 156.894531 77.023438 161.332031 79.015625 164.542969 82.253906 C 165.507812 83.222656 166.359375 84.285156 167.085938 85.449219 C 167.140625 85.351562 167.195312 85.253906 167.253906 85.15625 C 167.699219 84.382812 168.339844 83.769531 169.207031 83.390625 L 169.917969 83.09375 L 170.378906 83.726562 C 170.867188 84.382812 171.34375 85 171.789062 85.589844 L 180.960938 85.589844 L 180.960938 76.898438 C 180.960938 76.269531 180.710938 75.679688 180.292969 75.257812 C 179.871094 74.851562 179.300781 74.585938 178.671875 74.585938 L 162.894531 74.585938 L 156.277344 66.34375 L 146.574219 66.34375 L 139.957031 74.585938 L 121.667969 74.585938 C 122.1875 75.0625 122.648438 75.523438 123.207031 76.085938 C 123.804688 76.703125 124.515625 77.429688 125.480469 78.316406 L 126.25 78.972656 L 126.222656 79.015625 L 126.25 79.03125 C 124.683594 80.726562 123.664062 81.890625 121.140625 82.632812 C 119.5625 83.109375 117.871094 83.09375 116.378906 82.351562 C 116.058594 82.199219 115.636719 81.972656 115.191406 81.75 C 113.390625 80.796875 111.28125 79.6875 109.605469 79.6875 C 106.953125 79.6875 106.144531 80.050781 106.144531 80.597656 C 106.144531 81.175781 106.605469 82.085938 107.09375 83.066406 C 107.625 84.117188 108.199219 85.253906 108.449219 86.417969 C 110.78125 85.855469 111.589844 85.015625 114.355469 85.589844 Z M 139.039062 85.746094 L 137.933594 87.566406 C 133.746094 95.671875 137.640625 106.746094 146.855469 109.898438 L 147.75 110.136719 L 147.734375 110.179688 C 153.097656 111.664062 159.15625 110.125 163.160156 106.101562 C 165.71875 103.535156 167.40625 100.070312 167.726562 96.230469 L 167.78125 95.417969 C 167.78125 95.234375 167.78125 95.054688 167.78125 94.871094 C 167.78125 92.796875 167.390625 90.820312 166.667969 88.996094 L 166.34375 88.238281 C 165.5625 86.515625 164.472656 84.972656 163.160156 83.640625 C 160.300781 80.78125 156.347656 79 151.980469 79 C 147.609375 79 143.660156 80.78125 140.796875 83.640625 C 140.15625 84.300781 139.566406 85 139.039062 85.746094 Z M 135.742188 87.566406 L 118.65625 87.566406 C 121.25 89.332031 123.75 91.914062 126.082031 94.308594 C 127.003906 95.261719 127.898438 96.1875 128.75 97 C 128.75 95.949219 128.816406 95.011719 128.984375 94.296875 L 129.125 93.707031 L 129.710938 93.566406 C 129.710938 93.566406 130.03125 93.484375 130.578125 93.511719 L 130.605469 93.328125 C 130.898438 91.816406 131.316406 89.65625 132.363281 89.558594 C 133.242188 89.472656 134.027344 89.753906 134.683594 90.285156 C 134.710938 90.316406 134.738281 90.328125 134.765625 90.355469 C 135.015625 89.390625 135.351562 88.464844 135.742188 87.566406 Z M 180.960938 87.566406 L 173.394531 87.566406 C 175.378906 89.9375 177.082031 91.660156 178.519531 93.105469 C 179.34375 93.945312 180.097656 94.703125 180.765625 95.460938 L 180.960938 95.683594 Z M 151.980469 83.65625 C 155.066406 83.65625 157.855469 84.902344 159.882812 86.9375 C 161.90625 88.96875 163.160156 91.773438 163.160156 94.871094 C 163.160156 97.96875 161.90625 100.789062 159.882812 102.820312 C 157.855469 104.851562 155.0625 106.101562 151.980469 106.101562 C 148.894531 106.101562 146.101562 104.851562 144.078125 102.820312 C 142.054688 100.789062 140.796875 97.96875 140.796875 94.871094 C 140.796875 91.773438 142.054688 88.96875 144.078125 86.9375 C 146.101562 84.902344 148.894531 83.65625 151.980469 83.65625 Z M 158.484375 88.339844 C 156.824219 86.671875 154.519531 85.632812 151.980469 85.632812 C 149.4375 85.632812 147.132812 86.671875 145.460938 88.339844 C 143.796875 90.007812 142.765625 92.320312 142.765625 94.871094 C 142.765625 97.4375 143.796875 99.734375 145.460938 101.417969 C 147.132812 103.085938 149.4375 104.125 151.980469 104.125 C 154.519531 104.125 156.824219 103.085938 158.484375 101.417969 C 160.160156 99.734375 161.179688 97.4375 161.179688 94.871094 C 161.179688 92.320312 160.160156 90.007812 158.484375 88.339844 Z M 134.289062 92.992188 C 134.066406 92.5 133.789062 92.09375 133.453125 91.828125 C 133.171875 91.605469 132.867188 91.492188 132.53125 91.519531 C 132.097656 91.5625 132.714844 92.796875 132.546875 93.707031 L 132.488281 93.960938 C 133.019531 94.183594 133.59375 94.507812 134.191406 94.96875 L 134.191406 94.871094 C 134.191406 94.238281 134.222656 93.609375 134.289062 92.992188 Z M 169.234375 99.214844 C 168.4375 102.398438 166.792969 105.257812 164.542969 107.5 C 163.203125 108.863281 161.640625 109.996094 159.910156 110.867188 L 160.144531 111.019531 C 161.054688 111.007812 161.917969 110.992188 162.703125 110.964844 C 165.632812 110.894531 168.71875 110.992188 171.59375 110.558594 C 175 110.066406 175.125 109.746094 173.648438 106.746094 C 172.921875 105.230469 171.816406 103.410156 170.671875 101.542969 C 170.601562 101.417969 170.503906 101.277344 170.394531 101.09375 C 170.101562 100.648438 169.679688 100.003906 169.234375 99.214844 Z M 121.347656 69.132812 C 121.40625 69.019531 121.476562 68.910156 121.53125 68.78125 L 120.902344 68.488281 C 117.789062 66.988281 111.089844 63.777344 108.253906 65.9375 C 106.496094 67.28125 104.863281 68.488281 103.550781 69.414062 C 107.5 69.046875 110.140625 69.046875 112.078125 69.34375 C 114.117188 69.652344 115.402344 70.253906 116.589844 71.109375 L 117.175781 71.191406 C 119.339844 71.769531 120.359375 71.332031 121.347656 69.132812 Z M 121.726562 112.519531 C 123.804688 112.519531 125.496094 112.519531 127.394531 112.519531 C 127.28125 111.1875 127.449219 110.023438 127.714844 108.636719 C 127.449219 107.964844 127.269531 107.402344 127.242188 107.023438 C 127.210938 106.714844 127.535156 105.511719 127.910156 104.234375 C 124.671875 104.894531 121.515625 103.308594 118.949219 101.417969 C 119.378906 102.105469 119.8125 102.929688 120.203125 103.816406 C 121.210938 106.101562 122.035156 108.832031 122.035156 109.886719 C 122.046875 110.640625 121.949219 111.539062 121.726562 112.519531 Z M 109.46875 97.519531 C 109.902344 97.617188 110.320312 97.714844 110.753906 97.828125 C 113.015625 98.375 115.21875 98.992188 116.546875 99.457031 C 116.003906 98.964844 115.5 98.488281 115.054688 98.082031 C 114.339844 97.410156 114.046875 96.933594 113.921875 96.875 Z M 109.46875 97.519531 " fill-opacity="1" fill-rule="nonzero"/></g><g fill="#0b0019" fill-opacity="1"><g transform="translate(90.593374, 187.210856)"><g><path d="M 19.75 -1.453125 C 18.664062 -1.316406 17.722656 -1.4375 16.921875 -1.8125 C 15.515625 -2.695312 14.304688 -3.90625 13.296875 -5.4375 C 12.285156 -6.976562 11.375 -8.617188 10.5625 -10.359375 C 9.46875 -10.148438 8.363281 -9.976562 7.25 -9.84375 C 7.125 -7.851562 7.15625 -6.148438 7.34375 -4.734375 C 7.414062 -4.097656 7.535156 -3.519531 7.703125 -3 C 7.921875 -2.269531 8.101562 -1.800781 8.25 -1.59375 C 7.289062 -1.019531 6.191406 -0.660156 4.953125 -0.515625 L 3.859375 -0.375 C 3.296875 -0.300781 2.566406 -0.503906 1.671875 -0.984375 C 0.773438 -1.472656 0.132812 -2.316406 -0.25 -3.515625 C -0.476562 -4.304688 -0.535156 -5.460938 -0.421875 -6.984375 C -0.316406 -8.515625 -0.140625 -10.363281 0.109375 -12.53125 C 0.460938 -15.28125 0.765625 -18.421875 1.015625 -21.953125 C 1.265625 -25.492188 1.304688 -29.207031 1.140625 -33.09375 C 1.203125 -33.113281 1.421875 -33.144531 1.796875 -33.1875 C 2.179688 -33.238281 2.703125 -33.257812 3.359375 -33.25 C 4.023438 -33.25 4.757812 -33.101562 5.5625 -32.8125 C 6.363281 -32.53125 7.171875 -31.859375 7.984375 -30.796875 C 9.460938 -32.992188 11.226562 -34.222656 13.28125 -34.484375 C 15.3125 -34.734375 17.191406 -34.46875 18.921875 -33.6875 C 20.648438 -32.90625 22.066406 -31.804688 23.171875 -30.390625 C 23.878906 -29.429688 24.40625 -28.414062 24.75 -27.34375 C 24.90625 -26.8125 25.019531 -26.269531 25.09375 -25.71875 C 25.28125 -23.289062 24.597656 -20.863281 23.046875 -18.4375 C 21.492188 -16.007812 19.054688 -13.90625 15.734375 -12.125 C 17.054688 -10.320312 18.59375 -8.804688 20.34375 -7.578125 C 22.09375 -6.359375 23.773438 -5.632812 25.390625 -5.40625 C 25.484375 -4.726562 25.050781 -4.015625 24.09375 -3.265625 C 22.863281 -2.265625 21.414062 -1.660156 19.75 -1.453125 Z M 7.671875 -14.296875 C 11.085938 -15.535156 13.601562 -17.09375 15.21875 -18.96875 C 16.832031 -20.851562 17.640625 -22.726562 17.640625 -24.59375 C 17.640625 -25.09375 17.566406 -25.570312 17.421875 -26.03125 C 17.140625 -26.9375 16.53125 -27.75 15.59375 -28.46875 C 14.664062 -29.195312 13.484375 -29.472656 12.046875 -29.296875 C 11.097656 -29.179688 10.335938 -28.867188 9.765625 -28.359375 C 9.203125 -27.859375 8.796875 -27.222656 8.546875 -26.453125 C 8.296875 -25.691406 8.164062 -24.867188 8.15625 -23.984375 C 8.144531 -21.054688 7.984375 -17.828125 7.671875 -14.296875 Z M 7.671875 -14.296875 "/></g></g></g><g fill="#0b0019" fill-opacity="1"><g transform="translate(115.412006, 184.100757)"><g><path d="M 10.234375 -5.09375 C 11.265625 -5.289062 12.144531 -5.847656 12.875 -6.765625 C 13.601562 -7.691406 14.175781 -8.722656 14.59375 -9.859375 C 15.019531 -11.003906 15.300781 -12.03125 15.4375 -12.9375 C 15.582031 -13.851562 15.625 -14.789062 15.5625 -15.75 C 15.507812 -16.71875 15.363281 -17.625 15.125 -18.46875 C 14.84375 -19.332031 14.429688 -20.050781 13.890625 -20.625 C 13.347656 -21.207031 12.648438 -21.441406 11.796875 -21.328125 C 10.734375 -21.117188 9.832031 -20.570312 9.09375 -19.6875 C 8.351562 -18.800781 7.757812 -17.796875 7.3125 -16.671875 C 6.875 -15.546875 6.585938 -14.53125 6.453125 -13.625 C 6.316406 -12.71875 6.273438 -11.785156 6.328125 -10.828125 C 6.390625 -9.878906 6.546875 -9.003906 6.796875 -8.203125 L 7.015625 -7.5 C 7.171875 -6.976562 7.523438 -6.414062 8.078125 -5.8125 C 8.628906 -5.21875 9.347656 -4.976562 10.234375 -5.09375 Z M 9.75 -1.375 L 9.25 -1.3125 C 7.53125 -1.101562 5.953125 -1.351562 4.515625 -2.0625 C 3.078125 -2.78125 1.90625 -3.914062 1 -5.46875 C 0.601562 -6.15625 0.285156 -6.882812 0.046875 -7.65625 C -0.273438 -8.695312 -0.457031 -9.832031 -0.5 -11.0625 C -0.570312 -13.25 -0.109375 -15.335938 0.890625 -17.328125 C 1.898438 -19.316406 3.359375 -21.015625 5.265625 -22.421875 C 7.179688 -23.828125 9.554688 -24.707031 12.390625 -25.0625 C 15.109375 -25.394531 17.410156 -24.691406 19.296875 -22.953125 C 20.523438 -21.816406 21.398438 -20.390625 21.921875 -18.671875 C 22.753906 -15.992188 22.691406 -13.328125 21.734375 -10.671875 C 21.171875 -9.109375 20.335938 -7.675781 19.234375 -6.375 C 18.140625 -5.070312 16.789062 -3.976562 15.1875 -3.09375 C 13.59375 -2.207031 11.78125 -1.632812 9.75 -1.375 Z M 9.75 -1.375 "/></g></g></g><g fill="#0b0019" fill-opacity="1"><g transform="translate(139.571993, 181.073196)"><g><path d="M 12.921875 -1.765625 C 10.796875 -1.492188 8.75 -1.691406 6.78125 -2.359375 C 4.820312 -3.023438 3.113281 -4.113281 1.65625 -5.625 C 0.375 -7.03125 -0.550781 -8.648438 -1.125 -10.484375 C -1.675781 -12.234375 -1.804688 -13.96875 -1.515625 -15.6875 C -1.296875 -17.175781 -0.765625 -18.546875 0.078125 -19.796875 C 0.929688 -21.054688 2.082031 -22.109375 3.53125 -22.953125 C 4.976562 -23.796875 6.71875 -24.34375 8.75 -24.59375 L 9.015625 -24.640625 C 10.535156 -24.828125 12.054688 -24.644531 13.578125 -24.09375 C 15.109375 -23.539062 16.398438 -22.6875 17.453125 -21.53125 C 18.140625 -20.789062 18.617188 -19.984375 18.890625 -19.109375 C 19.046875 -18.640625 19.128906 -18.160156 19.140625 -17.671875 C 19.140625 -16.992188 18.882812 -16.425781 18.375 -15.96875 C 17.875 -15.519531 17.28125 -15.164062 16.59375 -14.90625 C 15.894531 -14.664062 15.285156 -14.515625 14.765625 -14.453125 C 14.273438 -14.390625 14.09375 -14.28125 14.21875 -14.125 C 14.082031 -14.570312 13.960938 -14.960938 13.859375 -15.296875 C 13.785156 -15.578125 13.703125 -15.875 13.609375 -16.1875 C 13.523438 -16.507812 13.398438 -16.914062 13.234375 -17.40625 C 13.078125 -17.90625 12.835938 -18.453125 12.515625 -19.046875 C 12.203125 -19.640625 11.78125 -20.140625 11.25 -20.546875 C 10.71875 -20.953125 10.070312 -21.109375 9.3125 -21.015625 C 7.40625 -20.671875 6.175781 -19.296875 5.625 -16.890625 C 5.28125 -15.179688 5.359375 -13.484375 5.859375 -11.796875 C 6.316406 -10.328125 7.210938 -9 8.546875 -7.8125 C 9.890625 -6.625 11.78125 -6.1875 14.21875 -6.5 C 16.132812 -6.78125 17.519531 -7.269531 18.375 -7.96875 C 19.238281 -8.675781 19.863281 -9.394531 20.25 -10.125 C 20.320312 -10.101562 20.425781 -9.882812 20.5625 -9.46875 C 20.65625 -9.175781 20.695312 -8.632812 20.6875 -7.84375 C 20.6875 -7.050781 20.140625 -5.988281 19.046875 -4.65625 C 17.953125 -3.332031 16.203125 -2.410156 13.796875 -1.890625 Z M 12.921875 -1.765625 "/></g></g></g><g fill="#0b0019" fill-opacity="1"><g transform="translate(159.257741, 178.606315)"><g><path d="M 4.9375 -0.640625 C 4.332031 -0.554688 3.488281 -0.59375 2.40625 -0.75 C 1.332031 -0.914062 0.492188 -1.890625 -0.109375 -3.671875 C -0.421875 -4.773438 -0.515625 -6.164062 -0.390625 -7.84375 C -0.273438 -9.519531 -0.09375 -11.304688 0.15625 -13.203125 C 0.445312 -15.273438 0.644531 -17.273438 0.75 -19.203125 C 0.863281 -21.140625 0.773438 -22.609375 0.484375 -23.609375 C 1.960938 -23.710938 3.382812 -23.617188 4.75 -23.328125 C 6.113281 -23.035156 6.972656 -22.613281 7.328125 -22.0625 C 7.441406 -21.84375 7.539062 -21.585938 7.625 -21.296875 C 7.875 -20.503906 7.972656 -19.4375 7.921875 -18.09375 C 7.878906 -16.757812 7.742188 -15.191406 7.515625 -13.390625 C 6.847656 -8.785156 6.828125 -5.472656 7.453125 -3.453125 C 7.703125 -2.628906 7.953125 -2.050781 8.203125 -1.71875 C 7.210938 -1.144531 6.125 -0.785156 4.9375 -0.640625 Z M 4.875 -27.046875 C 4.175781 -26.960938 3.4375 -27.0625 2.65625 -27.34375 C 1.375 -27.863281 0.570312 -28.617188 0.25 -29.609375 C 0.0390625 -30.410156 0.140625 -31.300781 0.546875 -32.28125 C 1.054688 -33.394531 1.796875 -34.148438 2.765625 -34.546875 C 3.066406 -34.671875 3.394531 -34.753906 3.75 -34.796875 C 4.4375 -34.878906 5.179688 -34.773438 5.984375 -34.484375 C 7.234375 -34.015625 8.003906 -33.285156 8.296875 -32.296875 C 8.535156 -31.492188 8.445312 -30.59375 8.03125 -29.59375 C 7.539062 -28.476562 6.796875 -27.71875 5.796875 -27.3125 C 5.515625 -27.175781 5.207031 -27.085938 4.875 -27.046875 Z M 4.875 -27.046875 "/></g></g></g><g fill="#0b0019" fill-opacity="1"><g transform="translate(166.474667, 177.701941)"><g><path d="M 10.234375 -5.09375 C 11.265625 -5.289062 12.144531 -5.847656 12.875 -6.765625 C 13.601562 -7.691406 14.175781 -8.722656 14.59375 -9.859375 C 15.019531 -11.003906 15.300781 -12.03125 15.4375 -12.9375 C 15.582031 -13.851562 15.625 -14.789062 15.5625 -15.75 C 15.507812 -16.71875 15.363281 -17.625 15.125 -18.46875 C 14.84375 -19.332031 14.429688 -20.050781 13.890625 -20.625 C 13.347656 -21.207031 12.648438 -21.441406 11.796875 -21.328125 C 10.734375 -21.117188 9.832031 -20.570312 9.09375 -19.6875 C 8.351562 -18.800781 7.757812 -17.796875 7.3125 -16.671875 C 6.875 -15.546875 6.585938 -14.53125 6.453125 -13.625 C 6.316406 -12.71875 6.273438 -11.785156 6.328125 -10.828125 C 6.390625 -9.878906 6.546875 -9.003906 6.796875 -8.203125 L 7.015625 -7.5 C 7.171875 -6.976562 7.523438 -6.414062 8.078125 -5.8125 C 8.628906 -5.21875 9.347656 -4.976562 10.234375 -5.09375 Z M 9.75 -1.375 L 9.25 -1.3125 C 7.53125 -1.101562 5.953125 -1.351562 4.515625 -2.0625 C 3.078125 -2.78125 1.90625 -3.914062 1 -5.46875 C 0.601562 -6.15625 0.285156 -6.882812 0.046875 -7.65625 C -0.273438 -8.695312 -0.457031 -9.832031 -0.5 -11.0625 C -0.570312 -13.25 -0.109375 -15.335938 0.890625 -17.328125 C 1.898438 -19.316406 3.359375 -21.015625 5.265625 -22.421875 C 7.179688 -23.828125 9.554688 -24.707031 12.390625 -25.0625 C 15.109375 -25.394531 17.410156 -24.691406 19.296875 -22.953125 C 20.523438 -21.816406 21.398438 -20.390625 21.921875 -18.671875 C 22.753906 -15.992188 22.691406 -13.328125 21.734375 -10.671875 C 21.171875 -9.109375 20.335938 -7.675781 19.234375 -6.375 C 18.140625 -5.070312 16.789062 -3.976562 15.1875 -3.09375 C 13.59375 -2.207031 11.78125 -1.632812 9.75 -1.375 Z M 9.75 -1.375 "/></g></g></g><g fill="#0b0019" fill-opacity="1"><g transform="translate(85.727967, 230.340472)"><g><path d="M 11.859375 -1.46875 C 8.960938 -1.101562 6.476562 -1.296875 4.40625 -2.046875 C 2.582031 -2.703125 1.21875 -3.609375 0.3125 -4.765625 C -0.0625 -5.273438 -0.335938 -5.8125 -0.515625 -6.375 C -0.742188 -7 -0.785156 -7.65625 -0.640625 -8.34375 C -0.453125 -9.269531 -0.03125 -9.988281 0.625 -10.5 C 1.601562 -11.269531 2.8125 -11.742188 4.25 -11.921875 C 4.550781 -11.960938 4.851562 -11.976562 5.15625 -11.96875 C 5.46875 -11.957031 5.59375 -12.039062 5.53125 -12.21875 C 5.613281 -11.6875 5.734375 -11.171875 5.890625 -10.671875 C 6.085938 -9.984375 6.445312 -9.238281 6.96875 -8.4375 C 7.488281 -7.632812 8.488281 -7.066406 9.96875 -6.734375 C 10.507812 -6.660156 11.007812 -6.648438 11.46875 -6.703125 C 12.082031 -6.785156 12.71875 -7.035156 13.375 -7.453125 C 14.03125 -7.878906 14.46875 -8.441406 14.6875 -9.140625 C 14.914062 -9.722656 14.9375 -10.332031 14.75 -10.96875 C 14.550781 -11.539062 14.070312 -12.269531 13.3125 -13.15625 C 12.5625 -14.050781 10.566406 -15.097656 7.328125 -16.296875 C 2.722656 -18.003906 -0.0195312 -20.300781 -0.90625 -23.1875 C -1.125 -23.875 -1.222656 -24.597656 -1.203125 -25.359375 C -1.179688 -27.078125 -0.285156 -28.757812 1.484375 -30.40625 C 3.253906 -32.050781 6.257812 -33.296875 10.5 -34.140625 L 11.4375 -34.28125 C 13.132812 -34.5 14.84375 -34.457031 16.5625 -34.15625 C 18.289062 -33.863281 19.742188 -33.253906 20.921875 -32.328125 C 21.640625 -31.773438 22.117188 -31.109375 22.359375 -30.328125 C 22.503906 -29.921875 22.566406 -29.484375 22.546875 -29.015625 C 22.492188 -28.066406 22.1875 -27.335938 21.625 -26.828125 C 21.070312 -26.328125 20.441406 -25.984375 19.734375 -25.796875 C 19.285156 -25.710938 18.867188 -25.644531 18.484375 -25.59375 C 18.191406 -25.5625 17.882812 -25.546875 17.5625 -25.546875 C 17.238281 -25.546875 17.132812 -25.445312 17.25 -25.25 C 16 -28.320312 14.007812 -29.75 11.28125 -29.53125 L 10.890625 -29.484375 C 8.640625 -29.203125 7.460938 -28.175781 7.359375 -26.40625 C 7.316406 -26.019531 7.351562 -25.632812 7.46875 -25.25 C 8.039062 -23.46875 10.160156 -21.828125 13.828125 -20.328125 C 16.472656 -19.253906 18.632812 -17.972656 20.3125 -16.484375 C 21.769531 -15.179688 22.722656 -13.773438 23.171875 -12.265625 C 23.234375 -12.097656 23.375 -11.539062 23.59375 -10.59375 C 23.8125 -9.65625 23.316406 -8.269531 22.109375 -6.4375 C 20.171875 -3.738281 16.753906 -2.082031 11.859375 -1.46875 Z M 11.859375 -1.46875 "/></g></g></g><g fill="#0b0019" fill-opacity="1"><g transform="translate(107.980156, 227.551983)"><g><path d="M 10.1875 -0.1875 C 8.507812 0.03125 6.953125 -0.375 5.515625 -1.40625 C 4.441406 -2.125 3.65625 -3.265625 3.15625 -4.828125 C 2.8125 -6.054688 2.695312 -7.445312 2.8125 -9 C 2.925781 -10.5625 3.132812 -12.25 3.4375 -14.0625 C 3.675781 -15.519531 3.914062 -17.3125 4.15625 -19.4375 C 2.539062 -19.238281 1.171875 -19.003906 0.046875 -18.734375 C 0.046875 -18.734375 0.00390625 -18.882812 -0.078125 -19.1875 C -0.117188 -19.320312 -0.164062 -19.585938 -0.21875 -19.984375 C -0.28125 -20.390625 -0.164062 -20.878906 0.125 -21.453125 C 0.414062 -22.023438 0.976562 -22.410156 1.8125 -22.609375 L 1.9375 -22.640625 C 2.664062 -22.773438 3.46875 -22.898438 4.34375 -23.015625 C 4.40625 -25.785156 4.140625 -28.320312 3.546875 -30.625 C 5.085938 -30.75 6.597656 -30.644531 8.078125 -30.3125 C 9.566406 -29.976562 10.429688 -29.535156 10.671875 -28.984375 C 11.160156 -27.390625 11.445312 -25.539062 11.53125 -23.4375 C 13.113281 -23.632812 14.492188 -23.921875 15.671875 -24.296875 C 15.816406 -24.140625 15.953125 -23.851562 16.078125 -23.4375 C 16.523438 -21.945312 16.070312 -20.988281 14.71875 -20.5625 C 13.632812 -20.289062 12.503906 -20.082031 11.328125 -19.9375 C 11.140625 -18.507812 10.972656 -17.226562 10.828125 -16.09375 C 10.503906 -14.257812 10.296875 -12.523438 10.203125 -10.890625 C 10.140625 -9.398438 10.289062 -8.03125 10.65625 -6.78125 C 11.0625 -5.457031 11.78125 -4.691406 12.8125 -4.484375 C 13.28125 -4.347656 13.757812 -4.3125 14.25 -4.375 C 14.519531 -4.40625 14.921875 -4.507812 15.453125 -4.6875 C 15.984375 -4.875 16.40625 -5.117188 16.71875 -5.421875 L 16.578125 -5.40625 C 16.484375 -5.394531 16.414062 -5.398438 16.375 -5.421875 C 16.34375 -5.453125 16.332031 -5.445312 16.34375 -5.40625 C 16.351562 -5.375 16.363281 -5.289062 16.375 -5.15625 C 16.394531 -5.03125 16.363281 -4.753906 16.28125 -4.328125 C 16 -3.390625 15.453125 -2.601562 14.640625 -1.96875 C 13.367188 -0.988281 11.882812 -0.394531 10.1875 -0.1875 Z M 10.1875 -0.1875 "/></g></g></g><g fill="#0b0019" fill-opacity="1"><g transform="translate(127.575056, 225.096487)"><g><path d="M 18.984375 -2.390625 C 18.378906 -2.316406 17.539062 -2.359375 16.46875 -2.515625 C 15.394531 -2.679688 14.554688 -3.65625 13.953125 -5.4375 C 13.773438 -6.019531 13.65625 -7.742188 13.59375 -10.609375 C 11.300781 -4.410156 8.882812 -1.15625 6.34375 -0.84375 C 4.738281 -0.644531 3.332031 -0.898438 2.125 -1.609375 C 0.914062 -2.316406 0.0820312 -3.425781 -0.375 -4.9375 C -0.664062 -5.9375 -0.753906 -7.054688 -0.640625 -8.296875 C -0.535156 -9.546875 -0.367188 -10.847656 -0.140625 -12.203125 C 0.242188 -14.191406 0.441406 -16.128906 0.453125 -18.015625 C 0.472656 -19.035156 0.351562 -20 0.09375 -20.90625 C -0.175781 -21.769531 -0.457031 -22.414062 -0.75 -22.84375 C 0.238281 -23.414062 1.320312 -23.773438 2.5 -23.921875 C 3.113281 -24.003906 3.945312 -23.960938 5 -23.796875 C 6.0625 -23.640625 6.894531 -22.664062 7.5 -20.875 C 7.832031 -19.632812 7.914062 -18.25 7.75 -16.71875 C 7.582031 -15.195312 7.347656 -13.734375 7.046875 -12.328125 C 6.847656 -11.421875 6.691406 -10.578125 6.578125 -9.796875 C 6.460938 -9.023438 6.476562 -8.398438 6.625 -7.921875 C 6.820312 -7.253906 7.296875 -6.960938 8.046875 -7.046875 C 9.203125 -7.191406 10.1875 -7.773438 11 -8.796875 C 11.820312 -9.816406 12.488281 -11.050781 13 -12.5 C 13.519531 -13.957031 13.921875 -15.503906 14.203125 -17.140625 C 14.484375 -18.773438 14.632812 -20.359375 14.65625 -21.890625 C 14.675781 -23.421875 14.617188 -24.578125 14.484375 -25.359375 C 16.015625 -25.472656 17.46875 -25.382812 18.84375 -25.09375 C 20.21875 -24.800781 21.070312 -24.378906 21.40625 -23.828125 C 21.519531 -23.609375 21.617188 -23.351562 21.703125 -23.0625 C 21.953125 -22.25 22.050781 -21.175781 22 -19.84375 C 21.957031 -18.519531 21.820312 -16.9375 21.59375 -15.09375 C 21.269531 -12.820312 21.101562 -10.640625 21.09375 -8.546875 C 21.082031 -7.316406 21.222656 -6.195312 21.515625 -5.1875 C 21.753906 -4.375 22 -3.804688 22.25 -3.484375 C 21.257812 -2.898438 20.171875 -2.535156 18.984375 -2.390625 Z M 18.984375 -2.390625 "/></g></g></g><g fill="#0b0019" fill-opacity="1"><g transform="translate(150.599449, 222.21123)"><g><path d="M 21.3125 -2.671875 C 20.726562 -2.597656 19.898438 -2.640625 18.828125 -2.796875 C 17.765625 -2.960938 16.929688 -3.941406 16.328125 -5.734375 C 16.171875 -6.222656 16.054688 -7.875 15.984375 -10.6875 C 14.515625 -7.09375 13.234375 -4.660156 12.140625 -3.390625 C 10.992188 -2.078125 9.664062 -1.328125 8.15625 -1.140625 C 6.53125 -0.929688 5.066406 -1.195312 3.765625 -1.9375 C 2.472656 -2.6875 1.425781 -3.835938 0.625 -5.390625 C 0.332031 -5.992188 0.0859375 -6.617188 -0.109375 -7.265625 C -0.472656 -8.421875 -0.679688 -9.675781 -0.734375 -11.03125 C -0.773438 -13.207031 -0.363281 -15.28125 0.5 -17.25 C 1.363281 -19.226562 2.601562 -20.90625 4.21875 -22.28125 C 5.832031 -23.65625 7.742188 -24.476562 9.953125 -24.75 C 11.285156 -24.914062 12.457031 -24.84375 13.46875 -24.53125 C 14.488281 -24.21875 15.675781 -23.171875 17.03125 -21.390625 C 17.414062 -24.992188 17.644531 -27.910156 17.71875 -30.140625 C 17.800781 -32.378906 17.726562 -33.890625 17.5 -34.671875 C 18.988281 -34.773438 20.410156 -34.679688 21.765625 -34.390625 C 23.117188 -34.109375 23.976562 -33.6875 24.34375 -33.125 C 24.394531 -32.976562 24.457031 -32.796875 24.53125 -32.578125 C 24.84375 -31.597656 24.953125 -30.070312 24.859375 -28 C 24.765625 -25.925781 24.554688 -23.457031 24.234375 -20.59375 C 24.003906 -18.269531 23.8125 -15.984375 23.65625 -13.734375 C 23.40625 -9.796875 23.566406 -6.910156 24.140625 -5.078125 C 24.347656 -4.390625 24.507812 -3.957031 24.625 -3.78125 C 23.613281 -3.1875 22.507812 -2.816406 21.3125 -2.671875 Z M 10.390625 -6.765625 C 11.359375 -6.878906 12.210938 -7.53125 12.953125 -8.71875 C 13.691406 -9.90625 14.347656 -11.332031 14.921875 -13 C 15.503906 -14.675781 16.007812 -16.453125 16.4375 -18.328125 C 16.425781 -18.722656 16.378906 -19.078125 16.296875 -19.390625 C 16.085938 -20.003906 15.648438 -20.523438 14.984375 -20.953125 C 14.316406 -21.390625 13.328125 -21.523438 12.015625 -21.359375 C 10.703125 -21.148438 9.617188 -20.578125 8.765625 -19.640625 C 7.921875 -18.703125 7.296875 -17.625 6.890625 -16.40625 C 6.160156 -14.195312 6.097656 -12.082031 6.703125 -10.0625 C 6.710938 -10.019531 6.796875 -9.742188 6.953125 -9.234375 C 7.117188 -8.734375 7.507812 -8.164062 8.125 -7.53125 C 8.738281 -6.90625 9.492188 -6.648438 10.390625 -6.765625 Z M 10.390625 -6.765625 "/></g></g></g><g fill="#0b0019" fill-opacity="1"><g transform="translate(174.600454, 219.203591)"><g><path d="M 4.9375 -0.640625 C 4.332031 -0.554688 3.488281 -0.59375 2.40625 -0.75 C 1.332031 -0.914062 0.492188 -1.890625 -0.109375 -3.671875 C -0.421875 -4.773438 -0.515625 -6.164062 -0.390625 -7.84375 C -0.273438 -9.519531 -0.09375 -11.304688 0.15625 -13.203125 C 0.445312 -15.273438 0.644531 -17.273438 0.75 -19.203125 C 0.863281 -21.140625 0.773438 -22.609375 0.484375 -23.609375 C 1.960938 -23.710938 3.382812 -23.617188 4.75 -23.328125 C 6.113281 -23.035156 6.972656 -22.613281 7.328125 -22.0625 C 7.441406 -21.84375 7.539062 -21.585938 7.625 -21.296875 C 7.875 -20.503906 7.972656 -19.4375 7.921875 -18.09375 C 7.878906 -16.757812 7.742188 -15.191406 7.515625 -13.390625 C 6.847656 -8.785156 6.828125 -5.472656 7.453125 -3.453125 C 7.703125 -2.628906 7.953125 -2.050781 8.203125 -1.71875 C 7.210938 -1.144531 6.125 -0.785156 4.9375 -0.640625 Z M 4.875 -27.046875 C 4.175781 -26.960938 3.4375 -27.0625 2.65625 -27.34375 C 1.375 -27.863281 0.570312 -28.617188 0.25 -29.609375 C 0.0390625 -30.410156 0.140625 -31.300781 0.546875 -32.28125 C 1.054688 -33.394531 1.796875 -34.148438 2.765625 -34.546875 C 3.066406 -34.671875 3.394531 -34.753906 3.75 -34.796875 C 4.4375 -34.878906 5.179688 -34.773438 5.984375 -34.484375 C 7.234375 -34.015625 8.003906 -33.285156 8.296875 -32.296875 C 8.535156 -31.492188 8.445312 -30.59375 8.03125 -29.59375 C 7.539062 -28.476562 6.796875 -27.71875 5.796875 -27.3125 C 5.515625 -27.175781 5.207031 -27.085938 4.875 -27.046875 Z M 4.875 -27.046875 "/></g></g></g><g fill="#0b0019" fill-opacity="1"><g transform="translate(181.817384, 218.299216)"><g><path d="M 10.234375 -5.09375 C 11.265625 -5.289062 12.144531 -5.847656 12.875 -6.765625 C 13.601562 -7.691406 14.175781 -8.722656 14.59375 -9.859375 C 15.019531 -11.003906 15.300781 -12.03125 15.4375 -12.9375 C 15.582031 -13.851562 15.625 -14.789062 15.5625 -15.75 C 15.507812 -16.71875 15.363281 -17.625 15.125 -18.46875 C 14.84375 -19.332031 14.429688 -20.050781 13.890625 -20.625 C 13.347656 -21.207031 12.648438 -21.441406 11.796875 -21.328125 C 10.734375 -21.117188 9.832031 -20.570312 9.09375 -19.6875 C 8.351562 -18.800781 7.757812 -17.796875 7.3125 -16.671875 C 6.875 -15.546875 6.585938 -14.53125 6.453125 -13.625 C 6.316406 -12.71875 6.273438 -11.785156 6.328125 -10.828125 C 6.390625 -9.878906 6.546875 -9.003906 6.796875 -8.203125 L 7.015625 -7.5 C 7.171875 -6.976562 7.523438 -6.414062 8.078125 -5.8125 C 8.628906 -5.21875 9.347656 -4.976562 10.234375 -5.09375 Z M 9.75 -1.375 L 9.25 -1.3125 C 7.53125 -1.101562 5.953125 -1.351562 4.515625 -2.0625 C 3.078125 -2.78125 1.90625 -3.914062 1 -5.46875 C 0.601562 -6.15625 0.285156 -6.882812 0.046875 -7.65625 C -0.273438 -8.695312 -0.457031 -9.832031 -0.5 -11.0625 C -0.570312 -13.25 -0.109375 -15.335938 0.890625 -17.328125 C 1.898438 -19.316406 3.359375 -21.015625 5.265625 -22.421875 C 7.179688 -23.828125 9.554688 -24.707031 12.390625 -25.0625 C 15.109375 -25.394531 17.410156 -24.691406 19.296875 -22.953125 C 20.523438 -21.816406 21.398438 -20.390625 21.921875 -18.671875 C 22.753906 -15.992188 22.691406 -13.328125 21.734375 -10.671875 C 21.171875 -9.109375 20.335938 -7.675781 19.234375 -6.375 C 18.140625 -5.070312 16.789062 -3.976562 15.1875 -3.09375 C 13.59375 -2.207031 11.78125 -1.632812 9.75 -1.375 Z M 9.75 -1.375 "/></g></g></g></svg>